<?xml version="1.0" standalone="no"?>
<!DOCTYPE svg PUBLIC "-//W3C//DTD SVG 20010904//EN"
 "http://www.w3.org/TR/2001/REC-SVG-20010904/DTD/svg10.dtd">
<svg version="1.0" xmlns="http://www.w3.org/2000/svg"
 width="638.000000pt" height="638.000000pt" viewBox="0 0 638.000000 638.000000"
 preserveAspectRatio="xMidYMid meet">

<g transform="translate(0.000000,638.000000) scale(0.100000,-0.100000)"
fill="#000000" stroke="none">
<path d="M0 3190 l0 -3190 3190 0 3190 0 0 3190 0 3190 -3190 0 -3190 0 0
-3190z m1268 -443 c44 -109 142 -148 294 -116 29 6 65 17 79 25 l26 13 6 -97
c4 -53 7 -136 7 -184 l0 -87 -37 -10 c-132 -35 -385 -38 -493 -6 -138 42 -255
139 -311 258 -59 127 -59 139 -57 1057 l3 834 225 72 225 72 5 -886 5 -887 23
-58z m2992 623 l0 -1070 -230 0 -230 0 0 1070 0 1070 230 0 230 0 0 -1070z
m-3728 774 c134 -45 198 -210 133 -341 -88 -176 -342 -176 -432 0 -102 199 87
414 299 341z m2439 -58 c357 -91 532 -357 571 -868 6 -87 9 -160 7 -163 -3 -2
-278 -5 -612 -5 -333 0 -608 -4 -611 -9 -10 -16 24 -144 55 -201 88 -165 266
-250 494 -236 160 10 281 45 458 133 l87 43 0 -188 0 -189 -62 -30 c-199 -97
-493 -135 -743 -98 -455 68 -711 363 -732 841 -21 467 170 820 512 949 161 61
388 69 576 21z m2750 4 c57 -12 108 -25 113 -30 11 -11 -23 -348 -36 -356 -4
-3 -33 4 -64 16 -31 11 -100 26 -154 32 -175 21 -309 -21 -409 -127 -199 -210
-199 -660 0 -870 131 -138 329 -168 579 -88 47 15 90 27 95 28 9 0 36 -362 28
-374 -6 -10 -168 -42 -257 -51 -455 -47 -768 78 -945 377 -52 87 -106 253
-122 370 -17 131 -7 354 21 463 91 351 340 582 682 630 103 15 350 4 469 -20z
m-3891 -180 l0 -150 -250 0 -250 0 0 150 0 150 250 0 250 0 0 -150z"/>
<path d="M2624 3766 c-130 -32 -231 -129 -272 -262 -12 -38 -23 -85 -24 -104
l-3 -35 385 0 385 0 -1 50 c-1 68 -27 153 -66 211 -85 126 -240 180 -404 140z"/>
</g>
</svg>
